<svg xmlns="http://www.w3.org/2000/svg" width="24" height="24" viewBox="0 0 24 24">
    <rect width="24" height="24" rx="4" fill="#0077B5"/> <!-- LinkedIn blue background -->
    <path d="M8.18555 6.78516C7.44455 6.78516 7 7.22936 7 7.81836C7 8.41136 7.44438 8.85742 8.10938 8.85742C8.85038 8.85742 9.29102 8.41136 9.29102 7.81836C9.29102 7.23036 8.85055 6.78516 8.18555 6.78516ZM7.0625 9.96289V16H9.23633V9.96289H7.0625ZM11.0332 9.96289V16H13.207V12.6973C13.207 11.7183 13.9081 11.5742 14.1191 11.5742C14.3301 11.5742 14.8926 11.7853 14.8926 12.6973V16H17V12.6973C17 10.8063 16.1545 9.96289 15.1035 9.96289C14.0525 9.96289 13.49 10.3126 13.207 10.8066V9.96289H11.0332Z" fill="white"/>
</svg>
