<svg width="24"
     height="24"
     viewBox="0 0 24 24"
     fill="none"
     xmlns="http://www.w3.org/2000/svg">
    <g clip-path="url(#clip0_linkedin)">
        <path d="M19.5 2h-15A2.5 2.5 0 002 4.5v15A2.5 2.5 0 004.5 22h15a2.5 2.5 0 002.5-2.5v-15A2.5 2.5 0 0019.5 2zM8.5 18.5h-3v-9h3v9zM7 8.25A1.75 1.75 0 117 4.75a1.75 1.75 0 010 3.5zm11.5 10.25h-3v-4.74c0-1.42-.6-1.93-1.38-1.93s-1.62.51-1.62 1.93v4.74h-3v-9h3v1.3c.4-.76 1.36-1.3 2.5-1.3 1.76 0 3.5 1.06 3.5 4.3v4.7z"
              fill="#A8ECFF"
              rx="4"/>
    </g>
    <defs>
        <clipPath id="clip0_linkedin">
            <rect width="24" height="24" fill="white"/>
        </clipPath>
    </defs>
</svg>